<svg xmlns="http://www.w3.org/2000/svg" viewBox="0 0 30 30" fill="none">
  <!-- Guacamaya para mapa volando - vista lateral -->
  <ellipse cx="15" cy="12" rx="6" ry="7" fill="#E31E24"/>
  <circle cx="15" cy="6" r="4.5" fill="#FFD700"/>
  <circle cx="17" cy="5.5" r="1.2" fill="#1A1A1A"/>
  <circle cx="17.3" cy="5.2" r="0.4" fill="#FFFFFF"/>
  <path d="M19 6 L23 6.3 L19 7.5 Z" fill="#333"/>
  <!-- Ala extendida -->
  <path d="M8 10 Q3 12 5 18 L10 14 Z" fill="#0066CC"/>
  <path d="M5 18 L2 23 L10 17 Z" fill="#00A651"/>
  <path d="M22 10 Q27 12 25 18 L20 14 Z" fill="#0066CC"/>
  <path d="M25 18 L28 23 L20 17 Z" fill="#00A651"/>
  <!-- Cola -->
  <path d="M12 18 L10 27 L14 22 Z" fill="#E31E24"/>
  <path d="M15 18 L15 28 L17 22 Z" fill="#FFD700"/>
  <path d="M18 18 L20 27 L16 22 Z" fill="#0066CC"/>
  <ellipse cx="15" cy="13" rx="3" ry="4" fill="#FFD700" opacity="0.8"/>
</svg>
