<svg xmlns="http://www.w3.org/2000/svg" viewBox="0 0 25 25" fill="none">
  <!-- Guacamaya pequeña amarilla para tarjetas - 20-25px -->
  <ellipse cx="12.5" cy="11" rx="5" ry="6" fill="#FFD700"/>
  <circle cx="12.5" cy="6" r="4" fill="#E31E24"/>
  <circle cx="14" cy="5.5" r="1" fill="#1A1A1A"/>
  <circle cx="14.3" cy="5.2" r="0.3" fill="#FFFFFF"/>
  <path d="M16 6 L19 6.5 L16 7.5 Z" fill="#333"/>
  <path d="M7 9 Q5 12 7 16 L9 13 Z" fill="#FFD700"/>
  <path d="M7 16 L5 20 L9 16 Z" fill="#0066CC"/>
  <path d="M18 9 Q20 12 18 16 L16 13 Z" fill="#FFD700"/>
  <path d="M18 16 L20 20 L16 16 Z" fill="#0066CC"/>
  <path d="M10 16 L9 23 L12 19 Z" fill="#FFD700"/>
  <path d="M15 16 L16 23 L13 19 Z" fill="#E31E24"/>
  <ellipse cx="12.5" cy="12" rx="2.5" ry="3" fill="#FFFFFF" opacity="0.6"/>
</svg>
