<svg xmlns="http://www.w3.org/2000/svg" viewBox="0 0 40 40" fill="none">
  <!-- Guacamaya pequeña para header - 30-40px -->
  <!-- Cuerpo principal -->
  <ellipse cx="20" cy="18" rx="8" ry="10" fill="#E31E24"/>

  <!-- Cabeza -->
  <circle cx="20" cy="10" r="6" fill="#FFD700"/>

  <!-- Ojo -->
  <circle cx="22" cy="9" r="1.5" fill="#1A1A1A"/>
  <circle cx="22.5" cy="8.5" r="0.5" fill="#FFFFFF"/>

  <!-- Pico -->
  <path d="M26 10 L30 11 L26 13 Z" fill="#333333"/>

  <!-- Ala izquierda -->
  <path d="M12 14 Q8 18 10 26 L14 22 Q12 18 14 16 Z" fill="#0066CC"/>
  <path d="M10 26 L8 32 L14 26 Z" fill="#00A651"/>

  <!-- Ala derecha -->
  <path d="M28 14 Q32 18 30 26 L26 22 Q28 18 26 16 Z" fill="#0066CC"/>
  <path d="M30 26 L32 32 L26 26 Z" fill="#00A651"/>

  <!-- Cola -->
  <path d="M16 26 L14 38 L18 30 Z" fill="#E31E24"/>
  <path d="M20 26 L20 40 L22 30 Z" fill="#0066CC"/>
  <path d="M24 26 L26 38 L22 30 Z" fill="#FFD700"/>

  <!-- Pecho -->
  <ellipse cx="20" cy="20" rx="4" ry="5" fill="#FFD700" opacity="0.9"/>
</svg>
